<?xml version="1.0"?><svg xmlns="http://www.w3.org/2000/svg" width="306" height="306"><rect x="0" y="0" width="100%" height="100%" fill="rgb(253, 121, 168)" /><polyline points="0, 0, 38.333333333333, 38.333333333333, 0, 38.333333333333, 0, 0" stroke="#000" stroke-opacity="0.02" fill-opacity="0.10666666666667" fill="#ddd" transform="translate(0, 38.333333333333) scale(1, -1)" /><polyline points="0, 0, 38.333333333333, 38.333333333333, 0, 38.333333333333, 0, 0" stroke="#000" stroke-opacity="0.02" fill-opacity="0.10666666666667" fill="#ddd" transform="translate(76.666666666667, 38.333333333333) scale(-1, -1)" /><polyline points="0, 0, 38.333333333333, 38.333333333333, 0, 38.333333333333, 0, 0" stroke="#000" stroke-opacity="0.02" fill-opacity="0.10666666666667" fill="#ddd" transform="translate(0, 38.333333333333) scale(1, 1)" /><polyline points="0, 0, 38.333333333333, 38.333333333333, 0, 38.333333333333, 0, 0" stroke="#000" stroke-opacity="0.02" fill-opacity="0.10666666666667" fill="#ddd" transform="translate(76.666666666667, 38.333333333333) scale(-1, 1)" /><polyline points="0, 0, 38.333333333333, 38.333333333333, 0, 38.333333333333, 0, 0" stroke="#000" stroke-opacity="0.02" fill-opacity="0.13266666666667" fill="#222" transform="translate(115, 0) scale(-1, 1)" /><polyline points="0, 0, 38.333333333333, 38.333333333333, 0, 38.333333333333, 0, 0" stroke="#000" stroke-opacity="0.02" fill-opacity="0.13266666666667" fill="#222" transform="translate(115, 76.666666666667) scale(1, -1)" /><polyline points="0, 0, 38.333333333333, 38.333333333333, 0, 38.333333333333, 0, 0" stroke="#000" stroke-opacity="0.02" fill-opacity="0.089333333333333" fill="#ddd" transform="translate(115, 76.666666666667) scale(-1, -1)" /><polyline points="0, 0, 38.333333333333, 38.333333333333, 0, 38.333333333333, 0, 0" stroke="#000" stroke-opacity="0.02" fill-opacity="0.089333333333333" fill="#ddd" transform="translate(115, 0) scale(1, 1)" /><polyline points="0, 0, 38.333333333333, 38.333333333333, 0, 38.333333333333, 0, 0" stroke="#000" stroke-opacity="0.02" fill-opacity="0.089333333333333" fill="#ddd" transform="translate(153.33333333333, 38.333333333333) scale(1, -1)" /><polyline points="0, 0, 38.333333333333, 38.333333333333, 0, 38.333333333333, 0, 0" stroke="#000" stroke-opacity="0.02" fill-opacity="0.089333333333333" fill="#ddd" transform="translate(230, 38.333333333333) scale(-1, -1)" /><polyline points="0, 0, 38.333333333333, 38.333333333333, 0, 38.333333333333, 0, 0" stroke="#000" stroke-opacity="0.02" fill-opacity="0.089333333333333" fill="#ddd" transform="translate(153.33333333333, 38.333333333333) scale(1, 1)" /><polyline points="0, 0, 38.333333333333, 38.333333333333, 0, 38.333333333333, 0, 0" stroke="#000" stroke-opacity="0.02" fill-opacity="0.089333333333333" fill="#ddd" transform="translate(230, 38.333333333333) scale(-1, 1)" /><polyline points="0, 0, 38.333333333333, 38.333333333333, 0, 38.333333333333, 0, 0" stroke="#000" stroke-opacity="0.02" fill-opacity="0.15" fill="#222" transform="translate(268.33333333333, 0) scale(-1, 1)" /><polyline points="0, 0, 38.333333333333, 38.333333333333, 0, 38.333333333333, 0, 0" stroke="#000" stroke-opacity="0.02" fill-opacity="0.15" fill="#222" transform="translate(268.33333333333, 76.666666666667) scale(1, -1)" /><polyline points="0, 0, 38.333333333333, 38.333333333333, 0, 38.333333333333, 0, 0" stroke="#000" stroke-opacity="0.02" fill-opacity="0.098" fill="#222" transform="translate(268.33333333333, 76.666666666667) scale(-1, -1)" /><polyline points="0, 0, 38.333333333333, 38.333333333333, 0, 38.333333333333, 0, 0" stroke="#000" stroke-opacity="0.02" fill-opacity="0.098" fill="#222" transform="translate(268.33333333333, 0) scale(1, 1)" /><polyline points="0, 0, 38.333333333333, 38.333333333333, 0, 38.333333333333, 0, 0" stroke="#000" stroke-opacity="0.02" fill-opacity="0.098" fill="#222" transform="translate(38.333333333333, 76.666666666667) scale(-1, 1)" /><polyline points="0, 0, 38.333333333333, 38.333333333333, 0, 38.333333333333, 0, 0" stroke="#000" stroke-opacity="0.02" fill-opacity="0.098" fill="#222" transform="translate(38.333333333333, 153.33333333333) scale(1, -1)" /><polyline points="0, 0, 38.333333333333, 38.333333333333, 0, 38.333333333333, 0, 0" stroke="#000" stroke-opacity="0.02" fill-opacity="0.072" fill="#ddd" transform="translate(38.333333333333, 153.33333333333) scale(-1, -1)" /><polyline points="0, 0, 38.333333333333, 38.333333333333, 0, 38.333333333333, 0, 0" stroke="#000" stroke-opacity="0.02" fill-opacity="0.072" fill="#ddd" transform="translate(38.333333333333, 76.666666666667) scale(1, 1)" /><polyline points="0, 0, 38.333333333333, 38.333333333333, 0, 38.333333333333, 0, 0" stroke="#000" stroke-opacity="0.02" fill-opacity="0.072" fill="#ddd" transform="translate(76.666666666667, 115) scale(1, -1)" /><polyline points="0, 0, 38.333333333333, 38.333333333333, 0, 38.333333333333, 0, 0" stroke="#000" stroke-opacity="0.02" fill-opacity="0.072" fill="#ddd" transform="translate(153.33333333333, 115) scale(-1, -1)" /><polyline points="0, 0, 38.333333333333, 38.333333333333, 0, 38.333333333333, 0, 0" stroke="#000" stroke-opacity="0.02" fill-opacity="0.072" fill="#ddd" transform="translate(76.666666666667, 115) scale(1, 1)" /><polyline points="0, 0, 38.333333333333, 38.333333333333, 0, 38.333333333333, 0, 0" stroke="#000" stroke-opacity="0.02" fill-opacity="0.072" fill="#ddd" transform="translate(153.33333333333, 115) scale(-1, 1)" /><polyline points="0, 0, 38.333333333333, 38.333333333333, 0, 38.333333333333, 0, 0" stroke="#000" stroke-opacity="0.02" fill-opacity="0.13266666666667" fill="#222" transform="translate(191.66666666667, 76.666666666667) scale(-1, 1)" /><polyline points="0, 0, 38.333333333333, 38.333333333333, 0, 38.333333333333, 0, 0" stroke="#000" stroke-opacity="0.02" fill-opacity="0.13266666666667" fill="#222" transform="translate(191.66666666667, 153.33333333333) scale(1, -1)" /><polyline points="0, 0, 38.333333333333, 38.333333333333, 0, 38.333333333333, 0, 0" stroke="#000" stroke-opacity="0.02" fill-opacity="0.037333333333333" fill="#ddd" transform="translate(191.66666666667, 153.33333333333) scale(-1, -1)" /><polyline points="0, 0, 38.333333333333, 38.333333333333, 0, 38.333333333333, 0, 0" stroke="#000" stroke-opacity="0.02" fill-opacity="0.037333333333333" fill="#ddd" transform="translate(191.66666666667, 76.666666666667) scale(1, 1)" /><polyline points="0, 0, 38.333333333333, 38.333333333333, 0, 38.333333333333, 0, 0" stroke="#000" stroke-opacity="0.02" fill-opacity="0.037333333333333" fill="#ddd" transform="translate(230, 115) scale(1, -1)" /><polyline points="0, 0, 38.333333333333, 38.333333333333, 0, 38.333333333333, 0, 0" stroke="#000" stroke-opacity="0.02" fill-opacity="0.037333333333333" fill="#ddd" transform="translate(306.66666666667, 115) scale(-1, -1)" /><polyline points="0, 0, 38.333333333333, 38.333333333333, 0, 38.333333333333, 0, 0" stroke="#000" stroke-opacity="0.02" fill-opacity="0.037333333333333" fill="#ddd" transform="translate(230, 115) scale(1, 1)" /><polyline points="0, 0, 38.333333333333, 38.333333333333, 0, 38.333333333333, 0, 0" stroke="#000" stroke-opacity="0.02" fill-opacity="0.037333333333333" fill="#ddd" transform="translate(306.66666666667, 115) scale(-1, 1)" /><polyline points="0, 0, 38.333333333333, 38.333333333333, 0, 38.333333333333, 0, 0" stroke="#000" stroke-opacity="0.02" fill-opacity="0.124" fill="#ddd" transform="translate(0, 191.66666666667) scale(1, -1)" /><polyline points="0, 0, 38.333333333333, 38.333333333333, 0, 38.333333333333, 0, 0" stroke="#000" stroke-opacity="0.02" fill-opacity="0.124" fill="#ddd" transform="translate(76.666666666667, 191.66666666667) scale(-1, -1)" /><polyline points="0, 0, 38.333333333333, 38.333333333333, 0, 38.333333333333, 0, 0" stroke="#000" stroke-opacity="0.02" fill-opacity="0.124" fill="#ddd" transform="translate(0, 191.66666666667) scale(1, 1)" /><polyline points="0, 0, 38.333333333333, 38.333333333333, 0, 38.333333333333, 0, 0" stroke="#000" stroke-opacity="0.02" fill-opacity="0.124" fill="#ddd" transform="translate(76.666666666667, 191.66666666667) scale(-1, 1)" /><polyline points="0, 0, 38.333333333333, 38.333333333333, 0, 38.333333333333, 0, 0" stroke="#000" stroke-opacity="0.02" fill-opacity="0.11533333333333" fill="#222" transform="translate(115, 153.33333333333) scale(-1, 1)" /><polyline points="0, 0, 38.333333333333, 38.333333333333, 0, 38.333333333333, 0, 0" stroke="#000" stroke-opacity="0.02" fill-opacity="0.11533333333333" fill="#222" transform="translate(115, 230) scale(1, -1)" /><polyline points="0, 0, 38.333333333333, 38.333333333333, 0, 38.333333333333, 0, 0" stroke="#000" stroke-opacity="0.02" fill-opacity="0.13266666666667" fill="#222" transform="translate(115, 230) scale(-1, -1)" /><polyline points="0, 0, 38.333333333333, 38.333333333333, 0, 38.333333333333, 0, 0" stroke="#000" stroke-opacity="0.02" fill-opacity="0.13266666666667" fill="#222" transform="translate(115, 153.33333333333) scale(1, 1)" /><polyline points="0, 0, 38.333333333333, 38.333333333333, 0, 38.333333333333, 0, 0" stroke="#000" stroke-opacity="0.02" fill-opacity="0.13266666666667" fill="#222" transform="translate(153.33333333333, 191.66666666667) scale(1, -1)" /><polyline points="0, 0, 38.333333333333, 38.333333333333, 0, 38.333333333333, 0, 0" stroke="#000" stroke-opacity="0.02" fill-opacity="0.13266666666667" fill="#222" transform="translate(230, 191.66666666667) scale(-1, -1)" /><polyline points="0, 0, 38.333333333333, 38.333333333333, 0, 38.333333333333, 0, 0" stroke="#000" stroke-opacity="0.02" fill-opacity="0.13266666666667" fill="#222" transform="translate(153.33333333333, 191.66666666667) scale(1, 1)" /><polyline points="0, 0, 38.333333333333, 38.333333333333, 0, 38.333333333333, 0, 0" stroke="#000" stroke-opacity="0.02" fill-opacity="0.13266666666667" fill="#222" transform="translate(230, 191.66666666667) scale(-1, 1)" /><polyline points="0, 0, 38.333333333333, 38.333333333333, 0, 38.333333333333, 0, 0" stroke="#000" stroke-opacity="0.02" fill-opacity="0.028666666666667" fill="#222" transform="translate(268.33333333333, 153.33333333333) scale(-1, 1)" /><polyline points="0, 0, 38.333333333333, 38.333333333333, 0, 38.333333333333, 0, 0" stroke="#000" stroke-opacity="0.02" fill-opacity="0.028666666666667" fill="#222" transform="translate(268.33333333333, 230) scale(1, -1)" /><polyline points="0, 0, 38.333333333333, 38.333333333333, 0, 38.333333333333, 0, 0" stroke="#000" stroke-opacity="0.02" fill-opacity="0.098" fill="#222" transform="translate(268.33333333333, 230) scale(-1, -1)" /><polyline points="0, 0, 38.333333333333, 38.333333333333, 0, 38.333333333333, 0, 0" stroke="#000" stroke-opacity="0.02" fill-opacity="0.098" fill="#222" transform="translate(268.33333333333, 153.33333333333) scale(1, 1)" /><polyline points="0, 0, 38.333333333333, 38.333333333333, 0, 38.333333333333, 0, 0" stroke="#000" stroke-opacity="0.02" fill-opacity="0.098" fill="#222" transform="translate(38.333333333333, 230) scale(-1, 1)" /><polyline points="0, 0, 38.333333333333, 38.333333333333, 0, 38.333333333333, 0, 0" stroke="#000" stroke-opacity="0.02" fill-opacity="0.098" fill="#222" transform="translate(38.333333333333, 306.66666666667) scale(1, -1)" /><polyline points="0, 0, 38.333333333333, 38.333333333333, 0, 38.333333333333, 0, 0" stroke="#000" stroke-opacity="0.02" fill-opacity="0.13266666666667" fill="#222" transform="translate(38.333333333333, 306.66666666667) scale(-1, -1)" /><polyline points="0, 0, 38.333333333333, 38.333333333333, 0, 38.333333333333, 0, 0" stroke="#000" stroke-opacity="0.02" fill-opacity="0.13266666666667" fill="#222" transform="translate(38.333333333333, 230) scale(1, 1)" /><polyline points="0, 0, 38.333333333333, 38.333333333333, 0, 38.333333333333, 0, 0" stroke="#000" stroke-opacity="0.02" fill-opacity="0.13266666666667" fill="#222" transform="translate(76.666666666667, 268.33333333333) scale(1, -1)" /><polyline points="0, 0, 38.333333333333, 38.333333333333, 0, 38.333333333333, 0, 0" stroke="#000" stroke-opacity="0.02" fill-opacity="0.13266666666667" fill="#222" transform="translate(153.33333333333, 268.33333333333) scale(-1, -1)" /><polyline points="0, 0, 38.333333333333, 38.333333333333, 0, 38.333333333333, 0, 0" stroke="#000" stroke-opacity="0.02" fill-opacity="0.13266666666667" fill="#222" transform="translate(76.666666666667, 268.33333333333) scale(1, 1)" /><polyline points="0, 0, 38.333333333333, 38.333333333333, 0, 38.333333333333, 0, 0" stroke="#000" stroke-opacity="0.02" fill-opacity="0.13266666666667" fill="#222" transform="translate(153.33333333333, 268.33333333333) scale(-1, 1)" /><polyline points="0, 0, 38.333333333333, 38.333333333333, 0, 38.333333333333, 0, 0" stroke="#000" stroke-opacity="0.02" fill-opacity="0.11533333333333" fill="#222" transform="translate(191.66666666667, 230) scale(-1, 1)" /><polyline points="0, 0, 38.333333333333, 38.333333333333, 0, 38.333333333333, 0, 0" stroke="#000" stroke-opacity="0.02" fill-opacity="0.11533333333333" fill="#222" transform="translate(191.66666666667, 306.66666666667) scale(1, -1)" /><polyline points="0, 0, 38.333333333333, 38.333333333333, 0, 38.333333333333, 0, 0" stroke="#000" stroke-opacity="0.02" fill-opacity="0.028666666666667" fill="#222" transform="translate(191.66666666667, 306.66666666667) scale(-1, -1)" /><polyline points="0, 0, 38.333333333333, 38.333333333333, 0, 38.333333333333, 0, 0" stroke="#000" stroke-opacity="0.02" fill-opacity="0.028666666666667" fill="#222" transform="translate(191.66666666667, 230) scale(1, 1)" /><polyline points="0, 0, 38.333333333333, 38.333333333333, 0, 38.333333333333, 0, 0" stroke="#000" stroke-opacity="0.02" fill-opacity="0.028666666666667" fill="#222" transform="translate(230, 268.33333333333) scale(1, -1)" /><polyline points="0, 0, 38.333333333333, 38.333333333333, 0, 38.333333333333, 0, 0" stroke="#000" stroke-opacity="0.02" fill-opacity="0.028666666666667" fill="#222" transform="translate(306.66666666667, 268.33333333333) scale(-1, -1)" /><polyline points="0, 0, 38.333333333333, 38.333333333333, 0, 38.333333333333, 0, 0" stroke="#000" stroke-opacity="0.02" fill-opacity="0.028666666666667" fill="#222" transform="translate(230, 268.33333333333) scale(1, 1)" /><polyline points="0, 0, 38.333333333333, 38.333333333333, 0, 38.333333333333, 0, 0" stroke="#000" stroke-opacity="0.02" fill-opacity="0.028666666666667" fill="#222" transform="translate(306.66666666667, 268.33333333333) scale(-1, 1)" /></svg>